<svg xmlns="http://www.w3.org/2000/svg" width="45.001" height="30.509" viewBox="0 0 45.001 30.509"><defs><style>.a{fill:#fff;}</style></defs><g transform="translate(-2899.865 -2306.734)"><path d="M2943.259,2311.311H2930.4v-1.526h-1.607v-1.525h-1.607v-1.526h-9.643v1.526h-1.607v1.525h-1.607v1.526H2907.9v-1.526h-4.821v1.526h-1.607v1.525h-1.607v21.356h1.607v1.525h1.607v1.526h38.572v-1.526h1.607v-1.525h1.607v-21.356h-1.607Zm-1.607,4.576v3.051h-6.429v-4.576h6.429Zm-33.751,15.254v-15.254h1.607v16.781H2907.9Zm8.036,0v-1.525h-1.607v-10.678h1.607v-1.525h1.607v-1.526h9.643v1.526h1.607v1.525h1.607v10.678h-1.607v1.525h-1.607v1.526h-9.643v-1.526Z"/><path class="a" d="M3273.78,2386.7h-3.214v4.576h6.429V2386.7h-3.215Z" transform="translate(-335.343 -72.342)"/><rect class="a" width="1.607" height="1.526" transform="translate(2925.58 2325.039)"/><rect class="a" width="1.607" height="1.525" transform="translate(2923.973 2326.565)"/><path class="a" d="M3120.524,2532.166h1.607v-1.526h-3.214v1.526Z" transform="translate(-198.158 -202.55)"/><path d="M3073.188,2432.42h4.821v-1.525h1.608v-1.526h1.607v-7.627h-1.607v-1.526h-1.608v-1.525h-6.429v1.525h-1.607v1.526h-1.607v7.627h1.607v1.526h1.607v1.525Zm-1.607-3.051v-1.525h1.607v1.525h3.214v-1.525h1.607v-1.526h1.608v1.526h-1.608v1.525H3076.4v1.526h-3.214v-1.526Z" transform="translate(-152.43 -101.278)"/><rect class="a" width="1.607" height="1.525" transform="translate(2919.151 2326.565)"/><path class="a" d="M3056.337,2419.475h8.036v-1.526h1.607v-1.525h1.607v-10.678h-1.607v-1.525h-1.607v-1.526h-9.643v1.526h-1.607v1.525h-1.607v10.678h1.607v1.525h1.607v1.526Zm-1.607-3.051V2414.9h-1.607v-7.627h1.607v-1.526h1.607v-1.525h6.429v1.525h1.607v1.526h1.607v7.627h-1.607v1.526h-1.607v1.525h-6.429v-1.525Z" transform="translate(-137.186 -86.807)"/><path class="a" d="M2985.726,2417.949v-15.255h-1.607v16.781h1.607Z" transform="translate(-76.218 -86.807)"/></g></svg>