<svg xmlns="http://www.w3.org/2000/svg" width="225.013" height="85.865" viewBox="0 0 225.013 85.865"><defs><style>.a,.c{stroke:#000;stroke-width:3px;}.a,.b{opacity:0.25;}.c,.f{fill:#fff;}.d{fill:#fad83b;}.e{fill:#e98a00;}.g{stroke:none;}.h{fill:none;}</style></defs><g transform="translate(-1674.987 -148.25)"><g class="a" transform="translate(1704 170.063)"><rect class="g" width="196" height="48" rx="24"/><rect class="h" x="1.5" y="1.5" width="193" height="45" rx="22.5"/></g><g class="b" transform="translate(1679.986 153.25)"><path d="M2603.793,2166.919v33.3h4.757v-33.3Z" transform="translate(-2532.441 -2143.135)"/><path d="M2572.723,2389.167v4.757h4.757v-9.514h-4.757Z" transform="translate(-2506.128 -2327.328)"/><path d="M2577.48,2190.7v-23.784h-4.757v33.3h4.757V2190.7Z" transform="translate(-2506.128 -2143.135)"/><path d="M2572.723,2114.293h4.757v-9.513h-4.757v9.513Z" transform="translate(-2506.128 -2090.51)"/><rect width="4.757" height="4.757" transform="translate(61.838 66.595)"/><path d="M2546.41,2384.409h-4.757v9.514h4.757v-9.514Z" transform="translate(-2479.814 -2327.328)"/><path d="M2541.653,2171.677v28.541h4.757v-33.3h-4.757Z" transform="translate(-2479.814 -2143.135)"/><path d="M2541.653,2109.536v4.756h4.757v-9.513h-4.757Z" transform="translate(-2479.814 -2090.51)"/><rect width="4.757" height="4.757" transform="translate(61.838 9.514)"/><path d="M2484.27,2446.55h-4.757v4.757h9.513v-4.757Z" transform="translate(-2427.188 -2379.955)"/><path d="M2484.27,2389.167h-4.757v4.757h9.513v-9.514h-4.757Z" transform="translate(-2427.188 -2327.328)"/><path d="M2278.521,2164.39v-23.784h-4.757v-4.757h-4.756V2173.9h-9.514V2150.12h-4.757v4.757h-4.757V2173.9h-9.513V2135.85h-4.757v4.757h-4.757v33.3h4.757v4.757h4.757v4.757h28.541v-4.757h4.756V2173.9h4.757v-9.514Z" transform="translate(-2216.683 -2116.823)"/><path d="M2510.583,2114.293h4.757v-9.513h-4.757v9.513Z" transform="translate(-2453.501 -2090.51)"/><path d="M2479.513,2477.62v4.757h9.513v-4.757h-9.513Z" transform="translate(-2427.188 -2406.268)"/><rect width="4.757" height="4.757" transform="translate(52.325 14.27)"/><path d="M2479.513,2073.709v4.757h9.513v-4.757h-9.513Z" transform="translate(-2427.188 -2064.196)"/><path d="M2484.27,2047.4h4.757v-4.757h-9.513v4.757Z" transform="translate(-2427.188 -2037.883)"/><path d="M2316.877,2477.62h-23.784v4.757h28.541v-4.757Z" transform="translate(-2269.309 -2406.268)"/><path d="M2312.12,2508.689h-19.027v4.757h28.541v-4.757h-9.514Z" transform="translate(-2269.309 -2432.581)"/><path d="M2312.12,2446.55h-19.027v4.757h28.541v-4.757h-9.514Z" transform="translate(-2269.309 -2379.955)"/><path d="M2395.816,2190.7v-23.784h-4.756v4.757H2386.3v4.757h4.756v19.027h4.756Z" transform="translate(-2348.249 -2143.135)"/><path d="M2417.373,2135.85v4.757h4.757v28.541h-4.757v4.757h9.514V2135.85h-9.514Z" transform="translate(-2374.562 -2116.823)"/><rect width="4.757" height="4.757" transform="translate(38.054 23.784)"/><rect width="4.757" height="4.757" transform="translate(33.297 33.297)"/><path d="M2297.85,2229.06v19.027h-4.757v4.757h9.513V2229.06Z" transform="translate(-2269.309 -2195.762)"/><rect width="4.757" height="4.757" transform="translate(28.541 23.784)"/><path d="M2302.606,2078.466h19.027v-4.757h-28.541v4.757h9.513Z" transform="translate(-2269.309 -2064.196)"/><path d="M2302.606,2016.326h19.027v-4.757h-28.541v4.757h9.513Z" transform="translate(-2269.309 -2011.569)"/><path d="M2297.85,2190.7v-14.27h4.757v-4.757h-4.757v-4.757h-4.757v28.541h4.757Z" transform="translate(-2269.309 -2143.135)"/><rect width="4.757" height="4.757" transform="translate(23.784 19.027)"/><path d="M2297.85,2109.536v4.756h4.757v9.514h4.757v-9.514h4.757v-4.756h9.514v-4.757h-28.541v4.757Z" transform="translate(-2269.309 -2090.51)"/><path d="M2297.85,2047.4h23.784v-4.757h-28.541v4.757Z" transform="translate(-2269.309 -2037.883)"/><path d="M2235.71,2477.62h-4.757v4.757h9.514v-4.757Z" transform="translate(-2216.683 -2406.268)"/><path d="M2240.467,2451.307v-4.757h-9.514v4.757h9.514Z" transform="translate(-2216.683 -2379.955)"/><path d="M2235.71,2415.479h-4.757v4.757h9.514v-4.757Z" transform="translate(-2216.683 -2353.641)"/><path d="M2240.467,2047.4v-4.757h-9.514v4.757h9.514Z" transform="translate(-2216.683 -2037.883)"/><rect width="4.757" height="4.757" transform="translate(14.27 57.081)"/><path d="M2235.71,2109.536h4.757v-4.757h-9.514v9.513h4.757Z" transform="translate(-2216.683 -2090.51)"/><path d="M2235.71,2078.466h4.757v-4.757h-9.514v4.757Z" transform="translate(-2216.683 -2064.196)"/><rect width="4.757" height="4.757" transform="translate(9.514 66.595)"/><path d="M2204.64,2389.167v-4.757h-4.757v9.514h4.757Z" transform="translate(-2190.37 -2327.328)"/><path d="M2204.64,2190.7v-23.784h-4.757v33.3h4.757V2190.7Z" transform="translate(-2190.37 -2143.135)"/><path d="M2199.883,2114.293h4.757v-9.513h-4.757v9.513Z" transform="translate(-2190.37 -2090.51)"/><rect width="4.757" height="4.757" transform="translate(9.514 9.514)"/><path d="M2147.257,2200.217H2142.5v-33.3h-4.757v38.054h4.757v4.757h4.757v-9.513Z" transform="translate(-2137.743 -2143.135)"/><path d="M2168.813,2176.433v23.784h4.757v-33.3h-4.757v9.514Z" transform="translate(-2164.056 -2143.135)"/><path d="M2173.57,2109.536v-4.757h-4.757v9.513h4.757Z" transform="translate(-2164.056 -2090.51)"/></g><g class="c" transform="translate(1699 165.063)"><rect class="g" width="196" height="48" rx="24"/><rect class="h" x="1.5" y="1.5" width="193" height="45" rx="22.5"/></g><g transform="translate(1674.987 148.25)"><path d="M2603.793,2166.919v33.3h4.757v-33.3Z" transform="translate(-2532.441 -2143.135)"/><path d="M2572.723,2389.167v4.757h4.757v-9.514h-4.757Z" transform="translate(-2506.128 -2327.328)"/><path class="d" d="M2577.48,2190.7v-23.784h-4.757v33.3h4.757V2190.7Z" transform="translate(-2506.128 -2143.135)"/><path d="M2572.723,2114.293h4.757v-9.513h-4.757v9.513Z" transform="translate(-2506.128 -2090.51)"/><rect width="4.757" height="4.757" transform="translate(61.838 66.595)"/><path class="d" d="M2546.41,2384.409h-4.757v9.514h4.757v-9.514Z" transform="translate(-2479.814 -2327.328)"/><path class="e" d="M2541.653,2171.677v28.541h4.757v-33.3h-4.757Z" transform="translate(-2479.814 -2143.135)"/><path class="d" d="M2541.653,2109.536v4.756h4.757v-9.513h-4.757Z" transform="translate(-2479.814 -2090.51)"/><rect width="4.757" height="4.757" transform="translate(61.838 9.514)"/><path class="d" d="M2484.27,2446.55h-4.757v4.757h9.513v-4.757Z" transform="translate(-2427.188 -2379.955)"/><path class="e" d="M2484.27,2389.167h-4.757v4.757h9.513v-9.514h-4.757Z" transform="translate(-2427.188 -2327.328)"/><path class="d" d="M2278.521,2164.39v-23.784h-4.757v-4.757h-4.756V2173.9h-9.514V2150.12h-4.757v4.757h-4.757V2173.9h-9.513V2135.85h-4.757v4.757h-4.757v33.3h4.757v4.757h4.757v4.757h28.541v-4.757h4.756V2173.9h4.757v-9.514Z" transform="translate(-2216.683 -2116.823)"/><path class="e" d="M2510.583,2114.293h4.757v-9.513h-4.757v9.513Z" transform="translate(-2453.501 -2090.51)"/><path d="M2479.513,2477.62v4.757h9.513v-4.757h-9.513Z" transform="translate(-2427.188 -2406.268)"/><rect class="f" width="4.757" height="4.757" transform="translate(52.325 14.27)"/><path class="d" d="M2479.513,2073.709v4.757h9.513v-4.757h-9.513Z" transform="translate(-2427.188 -2064.196)"/><path d="M2484.27,2047.4h4.757v-4.757h-9.513v4.757Z" transform="translate(-2427.188 -2037.883)"/><path class="d" d="M2316.877,2477.62h-23.784v4.757h28.541v-4.757Z" transform="translate(-2269.309 -2406.268)"/><path d="M2312.12,2508.689h-19.027v4.757h28.541v-4.757h-9.514Z" transform="translate(-2269.309 -2432.581)"/><path class="e" d="M2312.12,2446.55h-19.027v4.757h28.541v-4.757h-9.514Z" transform="translate(-2269.309 -2379.955)"/><path class="e" d="M2395.816,2190.7v-23.784h-4.756v4.757H2386.3v4.757h4.756v19.027h4.756Z" transform="translate(-2348.249 -2143.135)"/><path class="f" d="M2417.373,2135.85v4.757h4.757v28.541h-4.757v4.757h9.514V2135.85h-9.514Z" transform="translate(-2374.562 -2116.823)"/><rect class="f" width="4.757" height="4.757" transform="translate(38.054 23.784)"/><rect class="e" width="4.757" height="4.757" transform="translate(33.297 33.297)"/><path class="f" d="M2297.85,2229.06v19.027h-4.757v4.757h9.513V2229.06Z" transform="translate(-2269.309 -2195.762)"/><rect class="f" width="4.757" height="4.757" transform="translate(28.541 23.784)"/><path class="f" d="M2302.606,2078.466h19.027v-4.757h-28.541v4.757h9.513Z" transform="translate(-2269.309 -2064.196)"/><path d="M2302.606,2016.326h19.027v-4.757h-28.541v4.757h9.513Z" transform="translate(-2269.309 -2011.569)"/><path class="e" d="M2297.85,2190.7v-14.27h4.757v-4.757h-4.757v-4.757h-4.757v28.541h4.757Z" transform="translate(-2269.309 -2143.135)"/><rect class="f" width="4.757" height="4.757" transform="translate(23.784 19.027)"/><path class="d" d="M2297.85,2109.536v4.756h4.757v9.514h4.757v-9.514h4.757v-4.756h9.514v-4.757h-28.541v4.757Z" transform="translate(-2269.309 -2090.51)"/><path class="d" d="M2297.85,2047.4h23.784v-4.757h-28.541v4.757Z" transform="translate(-2269.309 -2037.883)"/><path d="M2235.71,2477.62h-4.757v4.757h9.514v-4.757Z" transform="translate(-2216.683 -2406.268)"/><path class="d" d="M2240.467,2451.307v-4.757h-9.514v4.757h9.514Z" transform="translate(-2216.683 -2379.955)"/><path class="e" d="M2235.71,2415.479h-4.757v4.757h9.514v-4.757Z" transform="translate(-2216.683 -2353.641)"/><path d="M2240.467,2047.4v-4.757h-9.514v4.757h9.514Z" transform="translate(-2216.683 -2037.883)"/><rect class="f" width="4.757" height="4.757" transform="translate(14.27 57.081)"/><path class="f" d="M2235.71,2109.536h4.757v-4.757h-9.514v9.513h4.757Z" transform="translate(-2216.683 -2090.51)"/><path class="d" d="M2235.71,2078.466h4.757v-4.757h-9.514v4.757Z" transform="translate(-2216.683 -2064.196)"/><rect width="4.757" height="4.757" transform="translate(9.514 66.595)"/><path class="d" d="M2204.64,2389.167v-4.757h-4.757v9.514h4.757Z" transform="translate(-2190.37 -2327.328)"/><path class="f" d="M2204.64,2190.7v-23.784h-4.757v33.3h4.757V2190.7Z" transform="translate(-2190.37 -2143.135)"/><path class="d" d="M2199.883,2114.293h4.757v-9.513h-4.757v9.513Z" transform="translate(-2190.37 -2090.51)"/><rect width="4.757" height="4.757" transform="translate(9.514 9.514)"/><path d="M2147.257,2200.217H2142.5v-33.3h-4.757v38.054h4.757v4.757h4.757v-9.513Z" transform="translate(-2137.743 -2143.135)"/><path class="d" d="M2168.813,2176.433v23.784h4.757v-33.3h-4.757v9.514Z" transform="translate(-2164.056 -2143.135)"/><path d="M2173.57,2109.536v-4.757h-4.757v9.513h4.757Z" transform="translate(-2164.056 -2090.51)"/></g></g></svg>