<svg xmlns="http://www.w3.org/2000/svg" width="32.279" height="32.605" viewBox="0 0 32.279 32.605"><defs><style>.a{fill:#fff;font-size:14px;font-family:AppleSDGothicNeo-ExtraBold, Apple SD Gothic Neo;font-weight:800;}</style></defs><g transform="translate(-1800.721 -13)"><path d="M9.279,21.21a2.651,2.651,0,0,0,2.65-2.651h-5.3A2.651,2.651,0,0,0,9.279,21.21Zm8.923-6.2c-.8-.86-2.3-2.154-2.3-6.392a6.542,6.542,0,0,0-5.3-6.428V1.326a1.325,1.325,0,1,0-2.65,0v.863a6.542,6.542,0,0,0-5.3,6.428c0,4.238-1.5,5.532-2.3,6.392a1.294,1.294,0,0,0-.357.9,1.327,1.327,0,0,0,1.33,1.326h15.9a1.327,1.327,0,0,0,1.33-1.326,1.294,1.294,0,0,0-.357-.9Z" transform="translate(1800.721 24.395)"/><g transform="translate(-1 1)"><circle cx="8.5" cy="8.5" r="8.5" transform="translate(1817 12)"/><text class="a" transform="translate(1826 26)"><tspan x="-3.752" y="0">3</tspan></text></g></g></svg>