<svg xmlns="http://www.w3.org/2000/svg" width="122.172" height="103.374" viewBox="0 0 122.172 103.374"><path d="M863.876-55.755H845.083V-65.15h-18.8v9.395H798.092V-65.15h-18.8v9.395H751.1v93.98H873.275v-93.98Zm-56.384,9.4h18.793v18.8H798.092v-18.8Zm-46.99,9.4v-9.4h18.793v9.4h9.4v9.4H760.5Zm0,28.192v-9.4h28.192V.633H760.5Zm18.793,37.591H760.5V10.032h28.192V28.826Zm37.591,0H798.092V10.032h28.192V28.826Zm46.99-9.395v9.395H835.683V10.032h28.192Zm0-28.2v9.4H835.683v-18.8h28.192Zm0-28.192v9.4H835.683v-9.4h9.4v-9.4h18.793Z" transform="translate(-751.103 65.15)"/></svg>