<svg xmlns="http://www.w3.org/2000/svg" width="23.566" height="23.566" viewBox="0 0 23.566 23.566"><defs><style>.a{fill:#fff;}</style></defs><path class="a" d="M-1193.559,479.844V477.7h-2.142v-2.143h-2.142v-2.142h-2.142v-2.143h-2.143v-2.143h-2.143v2.143h-2.141v2.143h-2.143v2.142h-2.143V477.7h-2.143v2.143h-2.143v4.284h2.143v8.57h19.281v-8.57h2.143v-4.284Zm-10.712,10.712v-6.428h2.143v6.428Zm8.569-4.285v4.285h-4.284v-8.569h-6.427v8.569h-4.285v-8.569h2.143v-2.143h2.143V477.7h2.141v-2.143h2.143V477.7h2.143v2.143h2.142v2.143h2.142v4.284Z" transform="translate(1214.983 -469.132)"/></svg>