<svg xmlns="http://www.w3.org/2000/svg" width="22.753" height="28.003" viewBox="0 0 22.753 28.003"><defs><style>.a{fill:#fff;}</style></defs><g transform="translate(370.251 917.383)"><path class="a" d="M-269.019-915.634h-3.5v1.75h-3.5v-3.5h-3.5v1.75h-3.5v1.75h5.25v1.75h-3.5v1.75h5.251v1.75h3.5v1.75h1.75v1.75h1.75v-3.5h-1.75v-1.75h-1.75v-1.75h1.75v-1.75h1.75v1.75h1.75v-3.5Z" transform="translate(-80.229 0)"/><path class="a" d="M-352.749-630.383H-368.5v-3.5h-1.75v5.25H-351v-5.25h-1.75v3.5Z" transform="translate(0 -260.747)"/><rect class="a" width="1.75" height="1.75" transform="translate(-352.749 -905.132)"/><rect class="a" width="1.75" height="1.75" transform="translate(-354.5 -896.381)"/><rect class="a" width="1.75" height="1.75" transform="translate(-356.249 -898.131)"/><path class="a" d="M-297.83-806.6v1.75h-1.75v1.75h-1.75v3.5h-3.5v1.75h8.751v-1.75h-1.75v-3.5h1.75v-5.251h-1.75Z" transform="translate(-60.17 -100.28)"/><rect class="a" width="1.75" height="1.75" transform="translate(-363.25 -910.382)"/><rect class="a" width="1.75" height="1.75" transform="translate(-365.001 -913.883)"/><rect class="a" width="1.75" height="1.75" transform="translate(-366.751 -898.131)"/><rect class="a" width="1.75" height="1.75" transform="translate(-368.501 -896.381)"/></g></svg>