<svg xmlns="http://www.w3.org/2000/svg" width="58.936" height="72.536" viewBox="0 0 58.936 72.536"><defs><style>.a{fill:#fff;}</style></defs><g transform="translate(1116.843 1807.357)"><path class="a" d="M-993.345-1802.825h-9.068v4.534h-9.066v-9.066h-9.068v4.532h-9.066v4.534h13.6v4.534h-9.068v4.534h13.6v4.532h9.066v4.534h4.534v4.534h4.534v-9.068h-4.534v-4.532h-4.534v-4.534h4.534v-4.534h4.534v4.534h4.534v-9.068Z" transform="translate(-69.096)"/><path class="a" d="M-1071.509-1514.791h-40.8v-9.066h-4.532v13.6h49.868v-13.6h-4.534v9.066Z" transform="translate(0 -224.564)"/><rect class="a" width="4.534" height="4.534" transform="translate(-1071.509 -1775.623)"/><rect class="a" width="4.534" height="4.534" transform="translate(-1076.043 -1752.955)"/><rect class="a" width="4.532" height="4.534" transform="translate(-1080.575 -1757.489)"/><path class="a" d="M-1033.289-1693.793v4.534h-4.534v4.534h-4.534v9.066h-9.066v4.534h22.668v-4.534h-4.534v-9.066h4.534v-13.6h-4.534Z" transform="translate(-51.82 -86.364)"/><rect class="a" width="4.532" height="4.532" transform="translate(-1098.709 -1789.223)"/><rect class="a" width="4.534" height="4.534" transform="translate(-1103.243 -1798.291)"/><rect class="a" width="4.534" height="4.534" transform="translate(-1107.777 -1757.489)"/><rect class="a" width="4.534" height="4.534" transform="translate(-1112.311 -1752.955)"/></g></svg>