<svg xmlns="http://www.w3.org/2000/svg" width="23.566" height="19.94" viewBox="0 0 23.566 19.94"><defs><style>.a{fill:#fff;}</style></defs><path class="a" d="M772.855-63.338H769.23V-65.15H765.6v1.812h-5.438V-65.15H756.54v1.812H751.1V-45.21h23.566V-63.338Zm-10.876,1.813H765.6V-57.9h-5.438v-3.626Zm-9.064,1.813v-1.813h3.625v1.813h1.813V-57.9h-5.438Zm0,5.438v-1.813h5.438v3.626h-5.438Zm3.625,7.251h-3.625v-3.625h5.438v3.625Zm7.251,0h-3.625v-3.625H765.6v3.625Zm9.064-1.812v1.812h-5.438v-3.625h5.438Zm0-5.439v1.813h-5.438v-3.626h5.438Zm0-5.438V-57.9h-5.438v-1.813h1.813v-1.813h3.625Z" transform="translate(-751.102 65.15)"/></svg>