<svg xmlns="http://www.w3.org/2000/svg" width="24.173" height="24.173" viewBox="0 0 24.173 24.173"><defs><style>.a{fill:#fff;}</style></defs><path class="a" d="M1057.354-602.124v-1.422h-1.422v-1.422h1.422v-2.844h-1.422v-1.422h-1.422v-1.422h-2.844v1.422h-1.422v-1.422h-1.422v-1.421h-4.266v1.421h-1.421v1.422h-1.422v-1.422h-2.844v1.422h-1.421v1.422h-1.422v2.844h1.422v1.422h-1.422v1.422H1034.6v4.266h1.422v1.422h1.422v1.422h-1.422v2.844h1.422v1.422h1.421v1.422h2.844v-1.422h1.422v1.422h1.421v1.422h4.266v-1.422h1.422v-1.422h1.422v1.422h2.844v-1.422h1.422v-1.422h1.422v-2.844h-1.422v-1.422h1.422v-1.422h1.422v-4.266Zm-5.688,4.266h-1.422v1.422h-1.422v1.422h-4.266v-1.422h-1.421v-1.422h-1.422v-4.266h1.422v-1.422h1.421v-1.422h4.266v1.422h1.422v1.422h1.422v4.266Z" transform="translate(-1034.603 612.077)"/></svg>